<svg width="40" height="40" viewBox="0 0 40 40" fill="none" xmlns="http://www.w3.org/2000/svg">
<path fill-rule="evenodd" clip-rule="evenodd" d="M19.9999 1.66675C30.1249 1.66675 38.3333 9.87508 38.3333 20.0001C38.3333 30.1251 30.1249 38.3334 19.9999 38.3334C9.87492 38.3334 1.66659 30.1251 1.66659 20.0001C1.66659 9.87508 9.87492 1.66675 19.9999 1.66675ZM23.6783 14.5117C23.9818 14.1974 24.1498 13.7764 24.146 13.3394C24.1422 12.9024 23.967 12.4844 23.658 12.1754C23.3489 11.8664 22.9309 11.6911 22.4939 11.6873C22.0569 11.6835 21.6359 11.8515 21.3216 12.1551L14.6549 18.8217C14.3425 19.1343 14.1669 19.5581 14.1669 20.0001C14.1669 20.442 14.3425 20.8659 14.6549 21.1784L21.3216 27.8451C21.6359 28.1487 22.0569 28.3167 22.4939 28.3129C22.9309 28.3091 23.3489 28.1338 23.658 27.8248C23.967 27.5158 24.1422 27.0977 24.146 26.6607C24.1498 26.2238 23.9818 25.8027 23.6783 25.4884L18.1899 20.0001L23.6783 14.5117Z" fill="#131316"/>
</svg>
